<svg width="30" height="30" viewBox="0 0 30 30" fill="none" xmlns="http://www.w3.org/2000/svg">
<rect x="6.10352e-05" y="0.000244141" width="30" height="30" rx="2" fill="#756F85"/>
<path d="M16.0001 11.4142L16.0001 21.0015C16.0001 21.5529 15.5524 22 15.0001 22C14.4478 22 14.0001 21.5529 14.0001 21.0015L14.0001 11.4142L11.7072 13.7071C11.3167 14.0976 10.6835 14.0976 10.293 13.7071C9.90249 13.3166 9.90249 12.6834 10.293 12.2929L14.293 8.29289C14.6835 7.90237 15.3167 7.90237 15.7072 8.29289L19.7072 12.2929C20.0978 12.6834 20.0978 13.3166 19.7072 13.7071C19.3167 14.0976 18.6835 14.0976 18.293 13.7071L16.0001 11.4142Z" fill="#756F85"/>
<mask id="mask0_6_544" style="mask-type:alpha" maskUnits="userSpaceOnUse" x="10" y="8" width="11" height="14">
<path d="M16.0001 11.4142L16.0001 21.0015C16.0001 21.5529 15.5524 22 15.0001 22C14.4478 22 14.0001 21.5529 14.0001 21.0015L14.0001 11.4142L11.7072 13.7071C11.3167 14.0976 10.6835 14.0976 10.293 13.7071C9.90249 13.3166 9.90249 12.6834 10.293 12.2929L14.293 8.29289C14.6835 7.90237 15.3167 7.90237 15.7072 8.29289L19.7072 12.2929C20.0978 12.6834 20.0978 13.3166 19.7072 13.7071C19.3167 14.0976 18.6835 14.0976 18.293 13.7071L16.0001 11.4142Z" fill="white"/>
</mask>
<g mask="url(#mask0_6_544)">
<rect x="30.0001" y="30" width="30" height="30" transform="rotate(-180 30.0001 30)" fill="white"/>
</g>
</svg>
