<svg width="30" height="30" viewBox="0 0 30 30" fill="none" xmlns="http://www.w3.org/2000/svg">
<rect y="0.000366211" width="30" height="30" rx="2" fill="#756F85"/>
<path d="M11.4143 14L21.0016 14C21.553 14 22.0001 14.4477 22.0001 15C22.0001 15.5523 21.553 16 21.0016 16L11.4143 16L13.7072 18.2929C14.0977 18.6834 14.0977 19.3166 13.7072 19.7071C13.3167 20.0976 12.6835 20.0976 12.293 19.7071L8.29298 15.7071C7.90246 15.3166 7.90246 14.6834 8.29298 14.2929L12.293 10.2929C12.6835 9.90237 13.3167 9.90237 13.7072 10.2929C14.0977 10.6834 14.0977 11.3166 13.7072 11.7071L11.4143 14Z" fill="#756F85"/>
<mask id="mask0_6_535" style="mask-type:alpha" maskUnits="userSpaceOnUse" x="8" y="10" width="14" height="10">
<path d="M11.4143 14L21.0016 14C21.553 14 22.0001 14.4477 22.0001 15C22.0001 15.5523 21.553 16 21.0016 16L11.4143 16L13.7072 18.2929C14.0977 18.6834 14.0977 19.3166 13.7072 19.7071C13.3167 20.0976 12.6835 20.0976 12.293 19.7071L8.29298 15.7071C7.90246 15.3166 7.90246 14.6834 8.29298 14.2929L12.293 10.2929C12.6835 9.90237 13.3167 9.90237 13.7072 10.2929C14.0977 10.6834 14.0977 11.3166 13.7072 11.7071L11.4143 14Z" fill="white"/>
</mask>
<g mask="url(#mask0_6_535)">
<rect x="30.0001" width="30" height="30" transform="rotate(90 30.0001 0)" fill="white"/>
</g>
</svg>
