<svg width="30" height="30" viewBox="0 0 30 30" fill="none" xmlns="http://www.w3.org/2000/svg">
<rect x="0.00012207" width="30" height="30" rx="2" fill="#756F85"/>
<path d="M14.0001 18.5858V8.99853C14.0001 8.44706 14.4478 8 15.0001 8C15.5524 8 16.0001 8.44706 16.0001 8.99853V18.5858L18.293 16.2929C18.6835 15.9024 19.3167 15.9024 19.7072 16.2929C20.0978 16.6834 20.0978 17.3166 19.7072 17.7071L15.7072 21.7071C15.3167 22.0976 14.6835 22.0976 14.293 21.7071L10.293 17.7071C9.90249 17.3166 9.90249 16.6834 10.293 16.2929C10.6835 15.9024 11.3167 15.9024 11.7072 16.2929L14.0001 18.5858Z" fill="#756F85"/>
<mask id="mask0_6_498" style="mask-type:alpha" maskUnits="userSpaceOnUse" x="10" y="8" width="11" height="14">
<path d="M14.0001 18.5858V8.99853C14.0001 8.44706 14.4478 8 15.0001 8C15.5524 8 16.0001 8.44706 16.0001 8.99853V18.5858L18.293 16.2929C18.6835 15.9024 19.3167 15.9024 19.7072 16.2929C20.0978 16.6834 20.0978 17.3166 19.7072 17.7071L15.7072 21.7071C15.3167 22.0976 14.6835 22.0976 14.293 21.7071L10.293 17.7071C9.90249 17.3166 9.90249 16.6834 10.293 16.2929C10.6835 15.9024 11.3167 15.9024 11.7072 16.2929L14.0001 18.5858Z" fill="white"/>
</mask>
<g mask="url(#mask0_6_498)">
<rect x="0.00012207" width="30" height="30" fill="white"/>
</g>
</svg>
