<svg width="30" height="30" viewBox="0 0 30 30" fill="none" xmlns="http://www.w3.org/2000/svg">
<rect x="0.00012207" y="0.00012207" width="30" height="30" rx="2" fill="#756F85"/>
<path d="M18.586 16L8.9987 16C8.44722 16 8.00017 15.5523 8.00017 15C8.00017 14.4477 8.44722 14 8.9987 14L18.586 14L16.2931 11.7071C15.9025 11.3166 15.9025 10.6834 16.2931 10.2929C16.6836 9.90237 17.3168 9.90237 17.7073 10.2929L21.7073 14.2929C22.0978 14.6834 22.0978 15.3166 21.7073 15.7071L17.7073 19.7071C17.3168 20.0976 16.6836 20.0976 16.2931 19.7071C15.9025 19.3166 15.9025 18.6834 16.2931 18.2929L18.586 16Z" fill="#756F85"/>
<mask id="mask0_6_526" style="mask-type:alpha" maskUnits="userSpaceOnUse" x="8" y="10" width="15" height="10">
<path d="M18.586 16L8.9987 16C8.44722 16 8.00017 15.5523 8.00017 15C8.00017 14.4477 8.44722 14 8.9987 14L18.586 14L16.2931 11.7071C15.9025 11.3166 15.9025 10.6834 16.2931 10.2929C16.6836 9.90237 17.3168 9.90237 17.7073 10.2929L21.7073 14.2929C22.0978 14.6834 22.0978 15.3166 21.7073 15.7071L17.7073 19.7071C17.3168 20.0976 16.6836 20.0976 16.2931 19.7071C15.9025 19.3166 15.9025 18.6834 16.2931 18.2929L18.586 16Z" fill="white"/>
</mask>
<g mask="url(#mask0_6_526)">
<rect x="0.000167847" y="30" width="30" height="30" transform="rotate(-90 0.000167847 30)" fill="white"/>
</g>
</svg>
